<?xml version="1.0" encoding="UTF-8"?>
<svg width="97px" height="36px" viewBox="0 0 97 36" version="1.1" xmlns="http://www.w3.org/2000/svg" xmlns:xlink="http://www.w3.org/1999/xlink">
    <!-- Generator: Sketch 43.2 (39069) - http://www.bohemiancoding.com/sketch -->
    <title>Litmus logo</title>
    <desc>Created with Sketch.</desc>
    <defs>
        <polygon id="path-1" points="9.64579364 0.0802568807 0.171340864 0.0802568807 0.171340864 11.6434569 9.64579364 11.6434569 9.64579364 0.0802568807"></polygon>
        <polygon id="path-3" points="0 35.9197431 96.8470622 35.9197431 96.8470622 0.330275229 0 0.330275229"></polygon>
    </defs>
    <g id="Homepage-Wireframes" stroke="none" stroke-width="1" fill="none" fill-rule="evenodd">
        <g id="Homepage---v3---768" transform="translate(-21.000000, -36.000000)">
            <g id="//Hero" transform="translate(-2.000000, 0.000000)">
                <g id="//Nav" transform="translate(0.000000, 35.000000)">
                    <g id="Litmus-logo" transform="translate(23.000000, 1.000000)">
                        <path d="M13.9711677,24.3567413 C14.9443125,24.9565211 16.0684169,25.3336954 17.2734515,25.4205578 L17.2737819,35.9196771 C13.7660344,35.8166312 10.5132997,34.6996404 7.79833811,32.8514202 L13.9711677,24.3567413 Z" id="Fill-1" fill="#FFFFFF"></path>
                        <path d="M17.2452416,10.8315743 L17.2452416,0.33146422 C13.7388154,0.439794495 10.4877323,1.56173945 7.77541338,3.41425321 L13.9475823,11.9082716 C14.9187451,11.3048587 16.0411979,10.9230606 17.2452416,10.8315743" id="Fill-3" fill="#FFFFFF"></path>
                        <g id="Group-7" transform="translate(18.168011, 0.250018)">
                            <mask id="mask-2" fill="white">
                                <use xlink:href="#path-1"></use>
                            </mask>
                            <g id="Clip-6"></g>
                            <path d="M9.64579364,3.14844771 C6.93116241,1.30022752 3.67809739,0.183236697 0.171340864,0.0801908257 L0.171340864,10.5796404 C1.37604518,10.6661725 2.49981927,11.0433468 3.47329435,11.6434569 L9.64579364,3.14844771 Z" id="Fill-5" fill="#FFFFFF" mask="url(#mask-2)"></path>
                        </g>
                        <path d="M11.0393462,20.9127303 L1.04925221,24.158345 C2.20705002,27.3715927 4.2623476,30.1558128 6.91355596,32.2084734 L13.0860552,23.7141248 C12.197144,22.9634092 11.4902432,22.0046202 11.0393462,20.9127303" id="Fill-8" fill="#FFFFFF"></path>
                        <path d="M13.0648813,12.5537615 L6.89139098,4.05842202 C4.24414656,6.11537615 2.19281291,8.90256881 1.03997,12.1181284 L11.0294033,15.3630826 C11.4756757,14.269211 12.1792733,13.3081101 13.0648813,12.5537615" id="Fill-10" fill="#FFFFFF"></path>
                        <path d="M10.4882278,18.1250422 C10.4882278,17.5321982 10.5605695,16.9558679 10.6936915,16.4043083 L0.70260655,13.158033 C0.246093972,14.7350972 0,16.4010055 0,18.1250422 C0,19.8586569 0.248736592,21.5341431 0.710864737,23.1188037 L10.7002981,19.8735193 C10.5628818,19.3133725 10.4882278,18.7277945 10.4882278,18.1250422" id="Fill-12" fill="#FFFFFF"></path>
                        <path d="M22.5479225,23.6960257 L28.7210825,32.1916954 C31.3693179,30.134411 33.4199909,27.3468881 34.5721731,24.1316587 L24.5834005,20.8870349 C24.1364674,21.9805761 23.4335305,22.9413468 22.5479225,23.6960257" id="Fill-14" fill="#FFFFFF"></path>
                        <path d="M18.3671989,25.4186752 L18.3671989,35.9191156 C21.8739554,35.8101248 25.1243778,34.6881798 27.8376877,32.8353358 L21.6648581,24.3413174 C20.694356,24.9453908 19.5712425,25.327189 18.3671989,25.4186752" id="Fill-16" fill="#FFFFFF"></path>
                        <path d="M34.9011793,13.1312477 L24.9120763,16.3768624 C25.0501532,16.9370092 25.1241466,17.5222569 25.1241466,18.1250092 C25.1241466,18.7178532 25.0521352,19.2938532 24.9190132,19.8457431 L34.9094375,23.0916881 C35.3666107,21.5152844 35.6127047,19.8490459 35.6127047,18.1250092 C35.6127047,16.3910642 35.3639681,14.7159083 34.9011793,13.1312477" id="Fill-18" fill="#FFFFFF"></path>
                        <path d="M24.572797,15.3368917 L34.5628909,12.0916073 C33.4054234,8.87802936 31.3494652,6.09413945 28.6989175,4.0414789 L22.5264182,12.5358275 C23.4149991,13.2865431 24.1225606,14.2453321 24.572797,15.3368917" id="Fill-20" fill="#FFFFFF"></path>
                        <path d="M46.491809,25.8897468 C44.3668123,25.8897468 43.44652,24.4662606 43.44652,22.8234716 L43.44652,10.2941505 L45.6815157,10.2941505 L45.6815157,22.6916917 C45.6815157,23.5461138 45.9877293,23.9840587 46.8858897,23.9840587 L47.8715869,23.9840587 L47.8715869,25.8897468 L46.491809,25.8897468 Z" id="Fill-22" fill="#FFFFFF"></path>
                        <mask id="mask-4" fill="white">
                            <use xlink:href="#path-3"></use>
                        </mask>
                        <g id="Clip-25"></g>
                        <path d="M49.2663617,25.8896147 L51.5006967,25.8896147 L51.5006967,14.7844404 L49.2663617,14.7844404 L49.2663617,25.8896147 Z M49.2002962,12.594055 L51.5667622,12.594055 L51.5667622,10.2286239 L49.2002962,10.2286239 L49.2002962,12.594055 Z" id="Fill-24" fill="#FFFFFF" mask="url(#mask-4)"></path>
                        <path d="M57.1806777,25.8897468 C55.1002753,25.8897468 54.1360494,24.4002055 54.1360494,22.8013431 L54.1360494,16.6902606 L52.8652795,16.6902606 L52.8652795,14.9817468 L54.1360494,14.9817468 L54.1360494,11.6089761 L56.3707148,11.6089761 L56.3707148,14.9817468 L58.5171827,14.9817468 L58.5171827,16.6902606 L56.3707148,16.6902606 L56.3707148,22.6916917 C56.3707148,23.5021872 56.7647954,23.9840587 57.597551,23.9840587 L58.5171827,23.9840587 L58.5171827,25.8897468 L57.1806777,25.8897468 Z" id="Fill-26" fill="#FFFFFF" mask="url(#mask-4)"></path>
                        <path d="M73.7270455,25.8897468 L73.7270455,19.1217468 C73.7270455,17.3911046 72.7413483,16.6463339 71.4923801,16.6463339 C70.2876757,16.6463339 69.1923098,17.413233 69.1923098,19.0124257 L69.1923098,25.8897468 L66.9576444,25.8897468 L66.9576444,19.1217468 C66.9576444,17.3911046 65.9719472,16.6463339 64.7236397,16.6463339 C63.4746715,16.6463339 62.4229088,17.413233 62.4229088,19.1217468 L62.4229088,25.8897468 L60.1885737,25.8897468 L60.1885737,14.7845725 L62.3796359,14.7845725 L62.3796359,15.901233 C63.124194,15.0910679 64.2192296,14.6534532 65.3367275,14.6534532 C66.7168357,14.6534532 67.7897393,15.2007193 68.4913549,16.2741138 C69.3895153,15.1789211 70.5063525,14.6534532 71.9743279,14.6534532 C73.1136273,14.6534532 74.1214565,15.0256734 74.7788082,15.6611229 C75.633035,16.492756 75.9613805,17.5443523 75.9613805,18.7927927 L75.9613805,25.8897468 L73.7270455,25.8897468 Z" id="Fill-27" fill="#FFFFFF" mask="url(#mask-4)"></path>
                        <path d="M84.4209352,25.8897468 L84.4209352,24.772756 C83.6549057,25.6050495 82.5813414,26.0211963 81.4645042,26.0211963 C80.3255351,26.0211963 79.3827804,25.6486459 78.7257591,25.0135266 C77.8712019,24.1815633 77.6082612,23.1302972 77.6082612,21.8815266 L77.6082612,14.7845725 L79.843257,14.7845725 L79.843257,21.5525725 C79.843257,23.2832147 80.8286238,24.0279853 82.0769314,24.0279853 C83.3258996,24.0279853 84.3773319,23.2617468 84.3773319,21.5525725 L84.3773319,14.7845725 L86.6119973,14.7845725 L86.6119973,25.8897468 L84.4209352,25.8897468 Z" id="Fill-28" fill="#FFFFFF" mask="url(#mask-4)"></path>
                        <path d="M92.2242612,26.0213284 C90.4061388,26.0213284 88.8724283,25.7145028 87.5580552,24.4224661 L89.0257002,22.9543927 C89.9238607,23.8748697 91.1288953,24.1156404 92.2242612,24.1156404 C93.5822375,24.1156404 94.6558018,23.6337688 94.6558018,22.5821725 C94.6558018,21.8377321 94.2395892,21.3558606 93.1663552,21.2683376 L91.3924966,21.1147596 C89.3111032,20.9393835 88.1057382,19.9974385 88.1057382,18.0481541 C88.1057382,15.8798972 89.9677942,14.653255 92.2899964,14.653255 C93.9548469,14.653255 95.3785583,15.0040073 96.4081891,15.9013651 L95.0069399,17.3255119 C94.3053243,16.7343193 93.3196271,16.5150165 92.2681948,16.5150165 C90.9313595,16.5150165 90.2528668,17.1062092 90.2528668,17.9385028 C90.2528668,18.5957505 90.6033443,19.0994202 91.7859167,19.2097321 L93.5383039,19.3626495 C95.6196974,19.5376954 96.8471943,20.523567 96.8471943,22.4946495 C96.8471943,24.8168147 94.8751393,26.0213284 92.2242612,26.0213284" id="Fill-29" fill="#FFFFFF" mask="url(#mask-4)"></path>
                    </g>
                </g>
            </g>
        </g>
    </g>
</svg>